<svg width="19" height="19" viewBox="0 0 19 19" fill="none" xmlns="http://www.w3.org/2000/svg">
<g id="Group">
<g id="Group_2">
<path id="Vector" d="M17.6923 0.978516C17.5946 0.978479 17.4983 1.00118 17.4109 1.04484L12.6454 3.42822L7.25678 1.0329C7.24797 1.02914 7.23791 1.02848 7.22848 1.02472C7.20424 1.01566 7.17944 1.0081 7.15427 1.0021C7.12925 0.995355 7.10383 0.990086 7.07818 0.986364C7.02711 0.982164 6.97578 0.982164 6.92475 0.986364C6.89911 0.990086 6.87368 0.995355 6.84866 1.0021C6.8235 1.0081 6.7987 1.01566 6.77445 1.02472C6.76502 1.02848 6.75496 1.02911 6.74615 1.0329L1.08645 3.54834C0.859247 3.64923 0.712854 3.87451 0.712891 4.12308V17.9579C0.713001 18.1707 0.820631 18.369 0.999008 18.4849C1.17742 18.6011 1.40245 18.619 1.59704 18.5327L7.00143 16.1305L12.4058 18.5327C12.4153 18.5365 12.4253 18.5327 12.4347 18.5384C12.587 18.6065 12.7618 18.6026 12.9108 18.5277C12.9208 18.5233 12.9321 18.5277 12.9422 18.5208L17.973 16.0053C18.1862 15.8988 18.3209 15.6809 18.3208 15.4425V1.60768C18.321 1.26036 18.0396 0.978663 17.6923 0.978516ZM6.3726 15.0337L1.97059 16.9901V4.53186L6.3726 2.57547V15.0337ZM12.0323 16.9901L7.6303 15.0337V2.57547L12.0323 4.53182V16.9901ZM17.0631 15.0539L13.29 16.9404V4.51171L17.0631 2.62514V15.0539V15.0539Z" fill="#84829A"/>
</g>
</g>
</svg>
