<svg width="38" height="31" viewBox="0 0 38 31" fill="none" xmlns="http://www.w3.org/2000/svg">
<g id="taxi 1">
<g id="Taxi Car Cab Vehicle Transport">
<path id="Vector" d="M6.77801 17.4043C6.29656 17.4043 5.82592 17.5471 5.42561 17.8145C5.0253 18.082 4.71329 18.4622 4.52905 18.907C4.3448 19.3518 4.2966 19.8413 4.39052 20.3135C4.48445 20.7857 4.71629 21.2194 5.05673 21.5598C5.39717 21.9003 5.83091 22.1321 6.30311 22.226C6.77531 22.32 7.26476 22.2718 7.70956 22.0875C8.15436 21.9033 8.53454 21.5913 8.80202 21.191C9.0695 20.7906 9.21226 20.32 9.21226 19.8386C9.21226 19.193 8.9558 18.5738 8.49929 18.1173C8.04278 17.6608 7.42361 17.4043 6.77801 17.4043ZM6.77801 21.0557C6.53728 21.0557 6.30196 20.9843 6.10181 20.8506C5.90165 20.7168 5.74565 20.5267 5.65353 20.3043C5.56141 20.0819 5.5373 19.8372 5.58427 19.6011C5.63123 19.365 5.74715 19.1481 5.91737 18.9779C6.08759 18.8077 6.30446 18.6918 6.54056 18.6448C6.77666 18.5979 7.02138 18.622 7.24378 18.7141C7.46618 18.8062 7.65627 18.9622 7.79001 19.1624C7.92375 19.3625 7.99514 19.5978 7.99514 19.8386C7.99514 20.1614 7.8669 20.4709 7.63865 20.6992C7.41039 20.9275 7.10081 21.0557 6.77801 21.0557Z" fill="white"/>
<path id="Vector_2" d="M31.1198 17.4043C30.6383 17.4043 30.1677 17.5471 29.7674 17.8145C29.3671 18.082 29.0551 18.4622 28.8708 18.907C28.6866 19.3518 28.6384 19.8413 28.7323 20.3135C28.8262 20.7857 29.0581 21.2194 29.3985 21.5598C29.739 21.9003 30.1727 22.1321 30.6449 22.226C31.1171 22.32 31.6065 22.2718 32.0513 22.0875C32.4961 21.9033 32.8763 21.5913 33.1438 21.191C33.4113 20.7906 33.554 20.32 33.554 19.8386C33.554 19.193 33.2976 18.5738 32.8411 18.1173C32.3846 17.6608 31.7654 17.4043 31.1198 17.4043ZM31.1198 21.0557C30.8791 21.0557 30.6438 20.9843 30.4436 20.8506C30.2434 20.7168 30.0874 20.5267 29.9953 20.3043C29.9032 20.0819 29.8791 19.8372 29.9261 19.6011C29.973 19.365 30.0889 19.1481 30.2592 18.9779C30.4294 18.8077 30.6462 18.6918 30.8823 18.6448C31.1184 18.5979 31.3632 18.622 31.5856 18.7141C31.808 18.8062 31.9981 18.9622 32.1318 19.1624C32.2655 19.3625 32.3369 19.5978 32.3369 19.8386C32.3369 20.1614 32.2087 20.4709 31.9804 20.6992C31.7522 20.9275 31.4426 21.0557 31.1198 21.0557Z" fill="white"/>
<path id="Vector_3" d="M13.4707 20.4468H24.4249V21.6639H13.4707V20.4468Z" fill="white"/>
<path id="Vector_4" d="M13.4707 18.0126H24.4249V19.2298H13.4707V18.0126Z" fill="white"/>
<path id="Vector_5" d="M17.123 8.88416H20.7744V10.1013H17.123V8.88416Z" fill="white"/>
<path id="Vector_6" d="M37.2052 14.3607V13.1436C37.2038 12.6599 37.011 12.1963 36.6689 11.8542C36.3268 11.5122 35.8633 11.3194 35.3795 11.3179H32.9696L31.7099 6.89975L31.3326 5.39659C31.2336 5.00191 31.0055 4.65161 30.6847 4.40133C30.3639 4.15105 29.9686 4.01513 29.5617 4.01515H24.4254V1.5809C24.4244 1.25839 24.2959 0.949369 24.0678 0.721322C23.8398 0.493275 23.5308 0.364733 23.2083 0.36377H14.6884C14.3659 0.364733 14.0568 0.493275 13.8288 0.721322C13.6008 0.949369 13.4722 1.25839 13.4712 1.5809V4.01515H8.33497C7.92805 4.01513 7.53279 4.15105 7.21194 4.40133C6.8911 4.65161 6.66306 5.00191 6.56405 5.39659L6.19282 6.89366L4.92701 11.3179H2.5171C2.03334 11.3194 1.56981 11.5122 1.22773 11.8542C0.885664 12.1963 0.692851 12.6599 0.691406 13.1436V14.3607C0.692392 14.669 0.77164 14.972 0.921722 15.2413C1.0718 15.5106 1.28781 15.7374 1.54948 15.9004C0.99934 16.4657 0.691482 17.2233 0.691406 18.0121V25.3149C0.692245 25.5702 0.746873 25.8225 0.85173 26.0552C0.956586 26.288 1.10932 26.4961 1.29997 26.6659V28.9663C1.30141 29.45 1.49423 29.9136 1.8363 30.2556C2.17837 30.5977 2.6419 30.7905 3.12566 30.792H7.99417C8.47793 30.7905 8.94146 30.5977 9.28353 30.2556C9.62561 29.9136 9.81842 29.45 9.81986 28.9663V27.1406H28.0768V28.9663C28.0782 29.45 28.271 29.9136 28.6131 30.2556C28.9552 30.5977 29.4187 30.7905 29.9025 30.792H34.771C35.2547 30.7905 35.7183 30.5977 36.0603 30.2556C36.4024 29.9136 36.5952 29.45 36.5967 28.9663V26.6659C36.7873 26.4961 36.9401 26.288 37.0449 26.0552C37.1498 25.8225 37.2044 25.5702 37.2052 25.3149V18.0121C37.2052 17.2233 36.8973 16.4657 36.3472 15.9004C36.6088 15.7374 36.8248 15.5106 36.9749 15.2413C37.125 14.972 37.2042 14.669 37.2052 14.3607V14.3607ZM14.6884 1.5809H23.2083V4.01515H14.6884V1.5809ZM7.74466 5.69479C7.77728 5.56285 7.85312 5.44563 7.96011 5.36181C8.06709 5.27798 8.19906 5.23239 8.33497 5.23228H29.5617C29.6976 5.23239 29.8295 5.27798 29.9365 5.36181C30.0435 5.44563 30.1194 5.56285 30.152 5.69479L30.3406 6.44941H7.55601L7.74466 5.69479ZM7.23347 7.66654H30.6632L32.7445 14.9693H15.2422C15.0991 14.1188 14.6594 13.3466 14.0009 12.7896C13.3425 12.2327 12.508 11.9271 11.6456 11.9271C10.7831 11.9271 9.94864 12.2327 9.2902 12.7896C8.63175 13.3466 8.19198 14.1188 8.04894 14.9693H5.15218L7.23347 7.66654ZM13.9946 14.9693H9.2965C9.42937 14.4471 9.73245 13.9841 10.1579 13.6534C10.5833 13.3227 11.1067 13.1431 11.6456 13.1431C12.1844 13.1431 12.7079 13.3227 13.1333 13.6534C13.5587 13.9841 13.8617 14.4471 13.9946 14.9693V14.9693ZM1.90853 13.1436C1.90853 12.9822 1.97265 12.8274 2.08678 12.7133C2.20091 12.5992 2.3557 12.535 2.5171 12.535H4.58013L3.88637 14.9693H2.5171C2.3557 14.9693 2.20091 14.9052 2.08678 14.7911C1.97265 14.6769 1.90853 14.5221 1.90853 14.3607V13.1436ZM8.60274 28.9663C8.60274 29.1277 8.53862 29.2825 8.42449 29.3966C8.31036 29.5107 8.15557 29.5748 7.99417 29.5748H3.12566C2.96426 29.5748 2.80947 29.5107 2.69534 29.3966C2.58121 29.2825 2.5171 29.1277 2.5171 28.9663V27.1406H8.60274V28.9663ZM35.3795 28.9663C35.3795 29.1277 35.3154 29.2825 35.2013 29.3966C35.0872 29.5107 34.9324 29.5748 34.771 29.5748H29.9025C29.7411 29.5748 29.5863 29.5107 29.4721 29.3966C29.358 29.2825 29.2939 29.1277 29.2939 28.9663V27.1406H35.3795V28.9663ZM35.9881 25.3149C35.9881 25.4763 35.924 25.6311 35.8099 25.7452C35.6957 25.8593 35.5409 25.9235 35.3795 25.9235H2.5171C2.3557 25.9235 2.20091 25.8593 2.08678 25.7452C1.97265 25.6311 1.90853 25.4763 1.90853 25.3149V24.7063H35.9881V25.3149ZM35.9881 23.4892H1.90853V18.0121C1.90998 17.5284 2.10279 17.0648 2.44486 16.7228C2.78693 16.3807 3.25047 16.1879 3.73423 16.1864H34.1624C34.6462 16.1879 35.1097 16.3807 35.4518 16.7228C35.7938 17.0648 35.9867 17.5284 35.9881 18.0121V23.4892ZM35.9881 14.3607C35.9881 14.5221 35.924 14.6769 35.8099 14.7911C35.6957 14.9052 35.5409 14.9693 35.3795 14.9693H34.0103L33.3165 12.535H35.3795C35.5409 12.535 35.6957 12.5992 35.8099 12.7133C35.924 12.8274 35.9881 12.9822 35.9881 13.1436V14.3607Z" fill="white"/>
</g>
</g>
</svg>
