<svg width="18" height="18" viewBox="0 0 18 18" fill="none" xmlns="http://www.w3.org/2000/svg">
<g id="leaf 1" clip-path="url(#clip0_348_2118)">
<g id="Group">
<g id="Group_2">
<path id="Vector" d="M17.2273 0.425937C16.7633 0.290161 5.41475 -0.839722 1.42921 4.54481C-0.335947 6.93018 -0.362463 10.2001 1.34075 14.2631C0.908699 15.1599 0.530467 16.1045 0.22222 17.1013C0.128504 17.4041 0.298018 17.7253 0.600556 17.8187C0.656957 17.8362 0.71408 17.8444 0.770482 17.8444C1.01507 17.8444 1.24215 17.6865 1.31795 17.4404C4.35565 7.61948 14.2275 2.86825 17.2548 1.66797C17.5494 1.55107 17.9431 0.635447 17.2273 0.425937Z" fill="#84829A"/>
</g>
</g>
<g id="Group_3">
<g id="Group_4">
<path id="Vector_2" d="M3.16211 15.4919C4.80521 16.1812 6.44807 16.5345 7.97582 16.5345C9.34902 16.5345 10.6296 16.2522 11.7332 15.6797C13.9541 14.5275 15.3113 12.3238 15.6579 9.30584C16.0109 6.23015 16.4505 4.30364 16.8172 3.12509C13.5531 4.6308 6.55403 8.5337 3.16211 15.4919Z" fill="#84829A"/>
</g>
</g>
</g>
<defs>
<clipPath id="clip0_348_2118">
<rect width="17.6082" height="17.6082" fill="white" transform="translate(0.0527344 0.236328)"/>
</clipPath>
</defs>
</svg>
