<svg width="36" height="37" viewBox="0 0 36 37" fill="none" xmlns="http://www.w3.org/2000/svg">
<g id="selection 1">
<g id="Group">
<g id="Group_2">
<path id="Vector" d="M0.980231 7.85283C0.498949 7.85283 0.105172 7.45906 0.0964212 6.97777V1.47365C0.0964212 0.98362 0.490198 0.589844 0.980231 0.589844H6.48435C6.96563 0.589844 7.35941 0.98362 7.35941 1.47365V3.39003H28.5358V1.47365C28.5358 0.992371 28.9296 0.598594 29.4109 0.589844H34.915C35.3963 0.589844 35.7901 0.98362 35.7988 1.47365V6.97777C35.7988 7.45906 35.4051 7.85283 34.915 7.85283H32.9986V29.0293H34.915C35.3963 29.0293 35.7901 29.423 35.7988 29.9043V35.4084C35.7988 35.8897 35.4051 36.2835 34.915 36.2923H29.4109C28.9296 36.2923 28.5358 35.8985 28.5358 35.4084V33.4921H7.35941V35.4084C7.35941 35.8897 6.96563 36.2835 6.48435 36.2923H0.980231C0.498949 36.2923 0.105172 35.8985 0.0964212 35.4084V29.9043C0.0964212 29.423 0.490198 29.0293 0.980231 29.0293H2.89661V7.85283H0.980231ZM34.0487 6.10272V2.33996H30.286V6.10272H34.0487ZM30.286 34.5421H34.0487V30.7794H30.286V34.5421ZM7.35941 29.9043V31.7419H28.5358V29.9043C28.5358 29.423 28.9296 29.0293 29.4109 29.0293H31.2485V7.85283H29.4109C28.9296 7.85283 28.5358 7.45906 28.5358 6.97777V5.14015H7.35941V6.97777C7.35941 7.45906 6.96563 7.85283 6.48435 7.85283H4.64673V29.0293H6.48435C6.96563 29.0293 7.35941 29.423 7.35941 29.9043ZM1.84654 30.7794V34.5421H5.60929V30.7794H1.84654ZM5.60929 6.10272V2.33996H1.84654V6.10272H5.60929Z" fill="white"/>
</g>
</g>
</g>
</svg>
