<svg width="21" height="22" viewBox="0 0 21 22" fill="none" xmlns="http://www.w3.org/2000/svg">
<g id="building 1">
<g id="Group">
<g id="Group_2">
<g id="Group_3">
<path id="Vector" d="M0.77809 20.3514H2.79046V9.28332C2.79046 9.0981 2.94063 8.94792 3.12586 8.94792H7.82139V1.23383C7.82139 1.04861 7.97156 0.898438 8.15678 0.898438H16.8771C17.0623 0.898438 17.2125 1.04861 17.2125 1.23383V20.3514H20.231C20.4162 20.3514 20.5664 20.5015 20.5664 20.6868C20.5664 20.872 20.4162 21.0221 20.231 21.0221H0.77809C0.592868 21.0221 0.442695 20.872 0.442695 20.6868C0.442695 20.5015 0.592868 20.3514 0.77809 20.3514ZM13.5231 20.3514H14.8647V17.3328C14.8647 17.1476 14.7145 16.9974 14.5293 16.9974H13.8585C13.6733 16.9974 13.5231 17.1476 13.5231 17.3328V20.3514ZM12.1815 9.28332V20.3514H12.8523V17.3328C12.8523 16.7771 13.3028 16.3266 13.8585 16.3266H14.5293C15.085 16.3266 15.5355 16.7771 15.5355 17.3328V20.3514H16.5417V1.56923H8.49218V8.94792H11.8461C12.0314 8.94792 12.1815 9.0981 12.1815 9.28332ZM3.46125 20.3514H11.5107V9.61871H3.46125V20.3514Z" fill="#84829A"/>
<path id="Vector_2" d="M9.83387 5.59375H11.8462C12.0315 5.59375 12.1816 5.74392 12.1816 5.92915V7.94152C12.1816 8.12674 12.0315 8.27691 11.8462 8.27691H9.83387C9.64865 8.27691 9.49848 8.12674 9.49848 7.94152V5.92915C9.49848 5.74392 9.64865 5.59375 9.83387 5.59375ZM10.1693 7.60612H11.5109V6.26454H10.1693V7.60612Z" fill="#84829A"/>
<path id="Vector_3" d="M9.83387 2.24005H11.8462C12.0315 2.24005 12.1816 2.39022 12.1816 2.57545V4.58782C12.1816 4.77304 12.0315 4.92321 11.8462 4.92321H9.83387C9.64865 4.92321 9.49848 4.77304 9.49848 4.58782V2.57545C9.49848 2.39022 9.64865 2.24005 9.83387 2.24005ZM10.1693 4.25242H11.5109V2.91084H10.1693V4.25242Z" fill="#84829A"/>
<path id="Vector_4" d="M13.1874 5.59375H15.1998C15.385 5.59375 15.5352 5.74392 15.5352 5.92915V7.94152C15.5352 8.12674 15.385 8.27691 15.1998 8.27691H13.1874C13.0022 8.27691 12.852 8.12674 12.852 7.94152V5.92915C12.852 5.74392 13.0022 5.59375 13.1874 5.59375ZM13.5228 7.60612H14.8644V6.26454H13.5228V7.60612Z" fill="#84829A"/>
<path id="Vector_5" d="M13.1874 2.24005H15.1998C15.385 2.24005 15.5352 2.39022 15.5352 2.57545V4.58782C15.5352 4.77304 15.385 4.92321 15.1998 4.92321H13.1874C13.0022 4.92321 12.852 4.77304 12.852 4.58782V2.57545C12.852 2.39022 13.0022 2.24005 13.1874 2.24005ZM13.5228 4.25242H14.8644V2.91084H13.5228V4.25242Z" fill="#84829A"/>
<path id="Vector_6" d="M13.1874 8.94727H15.1998C15.385 8.94727 15.5352 9.09744 15.5352 9.28266V11.295C15.5352 11.4803 15.385 11.6304 15.1998 11.6304H13.1874C13.0022 11.6304 12.852 11.4803 12.852 11.295V9.28266C12.852 9.09744 13.0022 8.94727 13.1874 8.94727ZM13.5228 10.9596H14.8644V9.61806H13.5228V10.9596Z" fill="#84829A"/>
<path id="Vector_7" d="M13.1874 12.3027H15.1998C15.385 12.3027 15.5352 12.4529 15.5352 12.6381V14.6505C15.5352 14.8357 15.385 14.9859 15.1998 14.9859H13.1874C13.0022 14.9859 12.852 14.8357 12.852 14.6505V12.6381C12.852 12.4529 13.0022 12.3027 13.1874 12.3027ZM13.5228 14.3151H14.8644V12.9735H13.5228V14.3151Z" fill="#84829A"/>
<path id="Vector_8" d="M6.815 16.3277H4.80262C4.6174 16.3277 4.46723 16.1775 4.46723 15.9923V13.9799C4.46723 13.7947 4.6174 13.6445 4.80262 13.6445H6.815C7.00022 13.6445 7.15039 13.7947 7.15039 13.9799V15.9923C7.15039 16.1775 7.00022 16.3277 6.815 16.3277ZM6.4796 14.3153H5.13802V15.6569H6.4796V14.3153Z" fill="#84829A"/>
<path id="Vector_9" d="M6.815 12.9722H4.80262C4.6174 12.9722 4.46723 12.8221 4.46723 12.6368V10.6245C4.46723 10.4392 4.6174 10.2891 4.80262 10.2891H6.815C7.00022 10.2891 7.15039 10.4392 7.15039 10.6245V12.6368C7.15039 12.8221 7.00022 12.9722 6.815 12.9722ZM6.4796 10.9599H5.13802V12.3014H6.4796V10.9599Z" fill="#84829A"/>
<path id="Vector_10" d="M6.815 19.6812H4.80262C4.6174 19.6812 4.46723 19.531 4.46723 19.3458V17.3334C4.46723 17.1482 4.6174 16.998 4.80262 16.998H6.815C7.00022 16.998 7.15039 17.1482 7.15039 17.3334V19.3458C7.15039 19.531 7.00022 19.6812 6.815 19.6812ZM6.4796 17.6688H5.13802V19.0104H6.4796V17.6688Z" fill="#84829A"/>
<path id="Vector_11" d="M10.1685 16.3277H8.15614C7.97092 16.3277 7.82074 16.1775 7.82074 15.9923V13.9799C7.82074 13.7947 7.97092 13.6445 8.15614 13.6445H10.1685C10.3537 13.6445 10.5039 13.7947 10.5039 13.9799V15.9923C10.5039 16.1775 10.3537 16.3277 10.1685 16.3277ZM9.83312 14.3153H8.49154V15.6569H9.83312V14.3153Z" fill="#84829A"/>
<path id="Vector_12" d="M10.1685 12.9722H8.15614C7.97092 12.9722 7.82074 12.8221 7.82074 12.6368V10.6245C7.82074 10.4392 7.97092 10.2891 8.15614 10.2891H10.1685C10.3537 10.2891 10.5039 10.4392 10.5039 10.6245V12.6368C10.5039 12.8221 10.3537 12.9722 10.1685 12.9722ZM9.83312 10.9599H8.49154V12.3014H9.83312V10.9599Z" fill="#84829A"/>
<path id="Vector_13" d="M10.1685 19.6812H8.15614C7.97092 19.6812 7.82074 19.531 7.82074 19.3458V17.3334C7.82074 17.1482 7.97092 16.998 8.15614 16.998H10.1685C10.3537 16.998 10.5039 17.1482 10.5039 17.3334V19.3458C10.5039 19.531 10.3537 19.6812 10.1685 19.6812ZM9.83312 17.6688H8.49154V19.0104H9.83312V17.6688Z" fill="#84829A"/>
</g>
</g>
</g>
</g>
</svg>
