<svg width="19" height="18" viewBox="0 0 19 18" fill="none" xmlns="http://www.w3.org/2000/svg">
<g id="send 2">
<path id="Vector" d="M16.1228 1.79899L8.17708 9.77406C8.086 9.72128 7.99021 9.67707 7.89095 9.642L2.64516 7.8665C2.48652 7.82674 2.34571 7.73511 2.2451 7.60618C2.14449 7.47724 2.08984 7.31838 2.08984 7.15483C2.08984 6.99128 2.14449 6.83243 2.2451 6.70349C2.34571 6.57455 2.48652 6.48292 2.64516 6.44316L15.6606 1.81366C15.7457 1.78477 15.8349 1.76991 15.9247 1.76964C15.9919 1.76856 16.0588 1.77847 16.1228 1.79899V1.79899Z" fill="#84829A"/>
<path id="Vector_2" d="M16.6294 2.78253L11.9999 15.8126C11.9488 15.9645 11.8495 16.0955 11.717 16.1856C11.5845 16.2756 11.4262 16.3199 11.2662 16.3115C11.1044 16.3189 10.9446 16.2726 10.8119 16.1797C10.6792 16.0868 10.5809 15.9526 10.5325 15.798L8.78636 10.5522C8.75128 10.4529 8.70707 10.3571 8.6543 10.266L16.644 2.32031C16.6891 2.47194 16.684 2.63407 16.6294 2.78253V2.78253Z" fill="#84829A"/>
</g>
</svg>
