<svg width="36" height="30" viewBox="0 0 36 30" fill="none" xmlns="http://www.w3.org/2000/svg">
<g id="water-sport 1">
<path id="Vector" d="M32.258 29.0655C31.5275 29.0805 30.8099 28.8715 30.2016 28.4666C29.7489 28.1708 29.2198 28.0132 28.679 28.0132C28.1382 28.0132 27.609 28.1708 27.1563 28.4666C26.5419 28.8578 25.8286 29.0655 25.1002 29.0655C24.3718 29.0655 23.6586 28.8578 23.0441 28.4666C22.5914 28.1705 22.0622 28.0127 21.5212 28.0127C20.9802 28.0127 20.451 28.1705 19.9983 28.4666C19.3838 28.8578 18.6706 29.0655 17.9422 29.0655C17.2138 29.0655 16.5005 28.8578 15.8861 28.4666C15.4337 28.1706 14.9048 28.013 14.3642 28.013C13.8236 28.013 13.2948 28.1706 12.8424 28.4666C12.2853 28.8368 11.6352 29.0425 10.9665 29.0603L10.9297 28.0076C11.4236 27.9959 11.9032 27.8396 12.3092 27.5581C12.9235 27.1671 13.6365 26.9593 14.3648 26.9593C15.093 26.9593 15.806 27.1671 16.4203 27.5581C16.873 27.8541 17.4021 28.0117 17.943 28.0117C18.4838 28.0117 19.0129 27.8541 19.4656 27.5581C20.0802 27.1667 20.7936 26.9587 21.5223 26.9587C22.2509 26.9587 22.9643 27.1667 23.5789 27.5581C24.0316 27.8541 24.5607 28.0117 25.1015 28.0117C25.6424 28.0117 26.1715 27.8541 26.6242 27.5581C27.2387 27.1671 27.9519 26.9594 28.6803 26.9594C29.4086 26.9594 30.1219 27.1671 30.7364 27.5581C31.1902 27.8548 31.7206 28.0128 32.2627 28.0128C32.8049 28.0128 33.3353 27.8548 33.7891 27.5581C34.3966 27.1544 35.1129 26.9458 35.8423 26.9602V28.0129C35.2992 27.998 34.7657 28.1568 34.3191 28.4661C33.7093 28.8715 32.9901 29.0807 32.258 29.0655V29.0655Z" fill="white"/>
<path id="Vector_2" d="M3.63175 29.0652C2.90137 29.0803 2.1839 28.8712 1.57592 28.4662C1.12944 28.1567 0.595815 27.9977 0.0527344 28.0125V26.9599C0.783287 26.9447 1.50095 27.1537 2.10909 27.5588C2.55533 27.8685 3.08882 28.0274 3.63175 28.0125C4.17492 28.0274 4.70864 27.8683 5.15493 27.5583C5.76178 27.1534 6.47825 26.9446 7.2076 26.9599C7.91927 26.9439 8.61916 27.1433 9.21553 27.532L8.68447 28.4404C8.24885 28.1473 7.73247 27.9976 7.2076 28.0125C6.66667 27.9979 6.13522 28.1565 5.69073 28.4652C5.08206 28.8713 4.36333 29.0808 3.63175 29.0652V29.0652Z" fill="white"/>
<path id="Vector_3" d="M32.2602 25.3815C31.5292 25.3964 30.8111 25.1874 30.2022 24.7825C29.7491 24.4864 29.2196 24.3287 28.6783 24.3287C28.137 24.3287 27.6074 24.4864 27.1543 24.7825C26.5399 25.1736 25.8267 25.3813 25.0985 25.3813C24.3702 25.3813 23.657 25.1736 23.0426 24.7825C22.5901 24.4866 22.0612 24.329 21.5205 24.329C20.9798 24.329 20.4509 24.4866 19.9984 24.7825C19.384 25.1737 18.6709 25.3815 17.9425 25.3815C17.2142 25.3815 16.501 25.1737 15.8867 24.7825C15.4342 24.4866 14.9053 24.329 14.3646 24.329C13.8239 24.329 13.295 24.4866 12.8424 24.7825C12.2345 25.1876 11.517 25.3967 10.7866 25.3815C10.0562 25.3967 9.33874 25.1876 8.73079 24.7825C8.28471 24.473 7.75142 24.314 7.20866 24.3288C6.66607 24.3141 6.13296 24.4731 5.68705 24.7825C5.08006 25.1872 4.36372 25.3962 3.63438 25.3815C2.90383 25.3967 2.18617 25.1876 1.57803 24.7825C1.13106 24.4724 0.596558 24.3134 0.0527344 24.3288V23.2762C0.783113 23.2611 1.50058 23.4701 2.10856 23.8752C2.55504 24.1847 3.08867 24.3436 3.63175 24.3288C4.17433 24.3436 4.70744 24.1846 5.15336 23.8752C5.76034 23.4705 6.47669 23.2615 7.20603 23.2762C7.93695 23.2607 8.65505 23.4697 9.26343 23.8752C9.70967 24.1848 10.2432 24.3437 10.7861 24.3288C11.329 24.3437 11.8625 24.1848 12.3088 23.8752C12.9231 23.4839 13.6363 23.2761 14.3646 23.2761C15.0929 23.2761 15.8061 23.4839 16.4204 23.8752C16.873 24.1711 17.402 24.3287 17.9428 24.3287C18.4836 24.3287 19.0126 24.1711 19.4652 23.8752C20.0795 23.4839 20.7927 23.2761 21.521 23.2761C22.2494 23.2761 22.9626 23.4839 23.5769 23.8752C24.0294 24.1711 24.5585 24.3287 25.0993 24.3287C25.64 24.3287 26.1691 24.1711 26.6216 23.8752C27.2366 23.4841 27.9503 23.2763 28.6791 23.2763C29.4078 23.2763 30.1215 23.4841 30.7365 23.8752C31.1899 24.171 31.7196 24.3286 32.261 24.3286C32.8024 24.3286 33.3321 24.171 33.7855 23.8752C34.3942 23.4704 35.112 23.2614 35.8429 23.2762V24.3288C35.2987 24.3135 34.7639 24.4724 34.3165 24.7825C33.7081 25.1871 32.9907 25.3961 32.2602 25.3815V25.3815Z" fill="white"/>
<path id="Vector_4" d="M32.2584 21.6977C31.5279 21.7127 30.8103 21.5037 30.202 21.0988C29.7556 20.7893 29.2219 20.6303 28.6788 20.6451C28.2803 20.6314 27.8845 20.7164 27.5267 20.8925L27.0625 19.9451C27.565 19.6988 28.1194 19.5773 28.6788 19.5909C29.4103 19.576 30.1287 19.7856 30.7373 20.1914C31.1911 20.488 31.7215 20.646 32.2637 20.646C32.8058 20.646 33.3362 20.488 33.79 20.1914C34.3973 19.7874 35.1134 19.5785 35.8427 19.5924V20.6451C35.2997 20.6302 34.7661 20.789 34.3195 21.0983C33.7097 21.5037 32.9905 21.7129 32.2584 21.6977Z" fill="white"/>
<path id="Vector_5" d="M25.0953 21.6979C24.366 21.7132 23.6495 21.5043 23.0426 21.0995C22.5899 20.8033 22.0607 20.6456 21.5197 20.6456C20.9787 20.6456 20.4495 20.8033 19.9968 21.0995C19.3824 21.4906 18.6691 21.6984 17.9407 21.6984C17.2123 21.6984 16.499 21.4906 15.8846 21.0995C15.4319 20.8035 14.9028 20.6459 14.3619 20.6459C13.8211 20.6459 13.292 20.8035 12.8393 21.0995C12.2314 21.5038 11.5144 21.7126 10.7845 21.6979C10.0541 21.713 9.33666 21.5039 8.72868 21.0989C8.2822 20.7894 7.74858 20.6305 7.2055 20.6452C6.66456 20.6306 6.13311 20.7892 5.68863 21.0979C5.08055 21.5036 4.36262 21.7131 3.63175 21.6979C2.90137 21.713 2.1839 21.5039 1.57592 21.0989C1.12944 20.7894 0.595815 20.6305 0.0527344 20.6452V19.5926C0.783287 19.5774 1.50095 19.7864 2.10909 20.1915C2.55533 20.5012 3.08882 20.6601 3.63175 20.6452C4.17493 20.6602 4.70864 20.501 5.15493 20.191C5.76178 19.7861 6.47826 19.5773 7.2076 19.5926C7.93798 19.5775 8.65544 19.7865 9.26343 20.1915C9.70967 20.5012 10.2432 20.6601 10.7861 20.6452C11.3292 20.66 11.8628 20.5011 12.3093 20.1915C12.9237 19.8004 13.637 19.5926 14.3654 19.5926C15.0938 19.5926 15.807 19.8004 16.4215 20.1915C16.8741 20.4875 17.4033 20.6451 17.9441 20.6451C18.485 20.6451 19.0141 20.4875 19.4668 20.1915C20.0813 19.8001 20.7948 19.5921 21.5234 19.5921C22.252 19.5921 22.9655 19.8001 23.58 20.1915C24.0437 20.5034 24.5936 20.6619 25.1521 20.6447C25.1928 20.6452 25.2334 20.6431 25.2737 20.6384L25.4137 21.6816C25.3081 21.6939 25.2017 21.6993 25.0953 21.6979V21.6979Z" fill="white"/>
<path id="Vector_6" d="M32.2602 18.0124C31.5292 18.0273 30.8111 17.8183 30.2022 17.4134C29.7491 17.1173 29.2196 16.9596 28.6783 16.9596C28.137 16.9596 27.6074 17.1173 27.1543 17.4134C26.5399 17.8045 25.8267 18.0122 25.0985 18.0122C24.3702 18.0122 23.657 17.8045 23.0426 17.4134C22.5901 17.1175 22.0612 16.9599 21.5205 16.9599C20.9798 16.9599 20.4509 17.1175 19.9984 17.4134C19.384 17.8046 18.6709 18.0124 17.9425 18.0124C17.2142 18.0124 16.501 17.8046 15.8867 17.4134C15.4342 17.1175 14.9053 16.9599 14.3646 16.9599C13.8239 16.9599 13.295 17.1175 12.8424 17.4134C12.2345 17.8185 11.517 18.0275 10.7866 18.0124C10.0562 18.0275 9.33874 17.8185 8.73079 17.4134C8.28471 17.1039 7.75142 16.9449 7.20866 16.9597C6.66607 16.945 6.13296 17.1039 5.68705 17.4134C5.08006 17.818 4.36372 18.027 3.63438 18.0124C2.90383 18.0275 2.18617 17.8185 1.57803 17.4134C1.13106 17.1032 0.596558 16.9443 0.0527344 16.9597V15.9071C0.783113 15.892 1.50058 16.101 2.10856 16.506C2.55504 16.8155 3.08867 16.9745 3.63175 16.9597C4.17433 16.9744 4.70744 16.8155 5.15336 16.506C5.76034 16.1014 6.47669 15.8924 7.20603 15.9071C7.93695 15.8915 8.65505 16.1006 9.26343 16.506C9.70967 16.8156 10.2432 16.9746 10.7861 16.9597C11.329 16.9746 11.8625 16.8156 12.3088 16.506C12.9231 16.1148 13.6363 15.9069 14.3646 15.9069C15.0929 15.9069 15.8061 16.1148 16.4204 16.506C16.873 16.802 17.402 16.9596 17.9428 16.9596C18.4836 16.9596 19.0126 16.802 19.4652 16.506C20.0795 16.1148 20.7927 15.9069 21.521 15.9069C22.2494 15.9069 22.9626 16.1148 23.5769 16.506C24.0294 16.802 24.5585 16.9596 25.0993 16.9596C25.64 16.9596 26.1691 16.802 26.6216 16.506C27.2366 16.1149 27.9503 15.9072 28.6791 15.9072C29.4078 15.9072 30.1215 16.1149 30.7365 16.506C31.1899 16.8019 31.7196 16.9594 32.261 16.9594C32.8024 16.9594 33.3321 16.8019 33.7855 16.506C34.3942 16.1012 35.112 15.8922 35.8429 15.9071V16.9597C35.2987 16.9443 34.7639 17.1033 34.3165 17.4134C33.7081 17.818 32.9907 18.027 32.2602 18.0124V18.0124Z" fill="white"/>
<path id="Vector_7" d="M24.7609 17.5656L23.7677 17.2172C24.0235 16.4822 24.128 15.7032 24.0749 14.9269C24.0218 14.1505 23.8122 13.3929 23.4588 12.6997L19.8434 5.6201C19.8077 5.55019 19.7881 5.47318 19.7861 5.39471C19.784 5.31623 19.7995 5.23829 19.8314 5.16658C19.8634 5.09488 19.9109 5.03123 19.9707 4.98029C20.0304 4.92935 20.1008 4.89242 20.1766 4.87219L27.3815 2.95111C27.6163 2.8897 27.8173 2.73807 27.9409 2.5292C28.0644 2.32032 28.1005 2.0711 28.0413 1.83576C27.982 1.60042 27.8322 1.398 27.6245 1.27254C27.4167 1.14707 27.1679 1.10872 26.932 1.16581L18.2118 3.25006C18.0254 3.29411 17.8516 3.38048 17.704 3.50249C17.5563 3.62449 17.4387 3.77885 17.3603 3.95361C17.2819 4.12837 17.2447 4.31884 17.2517 4.51026C17.2588 4.70168 17.3098 4.88891 17.4008 5.05746L19.9903 9.86807C20.056 9.99034 20.0707 10.1336 20.0313 10.2667C19.9918 10.3997 19.9014 10.5119 19.7798 10.5786L16.4376 12.4207L15.9297 11.4986L18.815 9.90807L16.475 5.55642C16.3076 5.24576 16.2138 4.90077 16.2011 4.54811C16.1883 4.19546 16.2568 3.84459 16.4013 3.52264C16.5458 3.20069 16.7624 2.91629 17.0344 2.69142C17.3063 2.46656 17.6264 2.30725 17.9697 2.22583L26.6857 0.142108C27.1931 0.0138945 27.7306 0.0925004 28.1801 0.360633C28.6296 0.628765 28.9541 1.06446 29.0823 1.57187C29.2105 2.07928 29.1319 2.61684 28.8638 3.0663C28.5956 3.51575 28.1599 3.84028 27.6525 3.96849L21.0766 5.72116L24.3967 12.2202C24.8147 13.0406 25.0625 13.9371 25.1251 14.8557C25.1877 15.7743 25.0638 16.6961 24.7609 17.5656V17.5656Z" fill="white"/>
<path id="Vector_8" d="M14.0894 12.5205L7.69336 16.0449L8.20113 16.9664L14.5971 13.442L14.0894 12.5205Z" fill="white"/>
<path id="Vector_9" d="M29.5275 14.0649C28.7468 14.0649 27.9836 13.8333 27.3344 13.3996C26.6853 12.9658 26.1793 12.3493 25.8806 11.628C25.5818 10.9067 25.5036 10.113 25.6559 9.34732C25.8082 8.58159 26.1842 7.87822 26.7363 7.32616C27.2883 6.7741 27.9917 6.39815 28.7574 6.24583C29.5231 6.09352 30.3168 6.17169 31.0381 6.47047C31.7594 6.76924 32.3759 7.27519 32.8097 7.92434C33.2434 8.5735 33.475 9.33669 33.475 10.1174C33.4738 11.164 33.0576 12.1674 32.3175 12.9075C31.5775 13.6475 30.5741 14.0637 29.5275 14.0649V14.0649ZM29.5275 7.22263C28.955 7.22263 28.3953 7.39241 27.9193 7.71049C27.4432 8.02858 27.0722 8.48068 26.8531 9.00964C26.634 9.53859 26.5767 10.1206 26.6884 10.6822C26.8 11.2437 27.0757 11.7595 27.4806 12.1643C27.8854 12.5692 28.4012 12.8449 28.9628 12.9566C29.5243 13.0683 30.1064 13.011 30.6353 12.7919C31.1643 12.5728 31.6164 12.2017 31.9344 11.7257C32.2525 11.2496 32.4223 10.69 32.4223 10.1174C32.4213 9.34998 32.116 8.61424 31.5734 8.07158C31.0307 7.52891 30.295 7.22361 29.5275 7.22263V7.22263Z" fill="white"/>
</g>
</svg>
